# xmcd CD database file
#
# Track frame offsets:
#	150
#	10849
#	32279
#	47659
#	58361
#	76779
#	86362
#	100436
#	113751
#	121650
#	135644
#	147605
#	160419
#	169041
#
# Disc length: 2371 seconds
#
# Revision: 0
# Processed by: cddbd v1.5.2PL0 Copyright (c) Steve Scherf et al.
# Submitted via: CDex 1.51
#
DISCID=af09410e
DTITLE=Booze Bombs - Rockin' Off The Grid
DYEAR=2009
DGENRE=Rockabilly
TTITLE0=Hey Rick Baby
TTITLE1=All Night Long
TTITLE2=Friday Night Blues
TTITLE3=Con Te Ballo Il Rock 'n' Roll
TTITLE4=I Got A Boy
TTITLE5=Harr, Harr, Harr
TTITLE6=Rock Me Baby
TTITLE7=16 Reasons
TTITLE8=Please Baby Love Me
TTITLE9=Be Boppin' Baby
TTITLE10=Zack, Zack, Zack
TTITLE11=My Baby's Gone
TTITLE12=Cold Cloudy Day
TTITLE13=A-81 Blues
EXTD=YEAR: 2009
EXTT0=
EXTT1=
EXTT2=
EXTT3=
EXTT4=
EXTT5=
EXTT6=
EXTT7=
EXTT8=
EXTT9=
EXTT10=
EXTT11=
EXTT12=
EXTT13=
PLAYORDER=
